<svg xmlns="http://www.w3.org/2000/svg" viewBox="0 0 24 24" width="32" height="32">
  <path fill="#58a6ff" d="M12,2C6.47,2 2,6.5 2,12A10,10 0 0,0 12,22A10,10 0 0,0 22,12A10,10 0 0,0 12,2M12,4A1.5,1.5 0 0,1 13.5,5.5A1.5,1.5 0 0,1 12,7A1.5,1.5 0 0,1 10.5,5.5A1.5,1.5 0 0,1 12,4M4.27,18.5L6.14,15L8.5,15.5L6.64,19C5.72,18.85 4.84,18.55 4.04,18.12L4.27,18.5M7.5,10.5A1.5,1.5 0 0,1 9,12A1.5,1.5 0 0,1 7.5,13.5A1.5,1.5 0 0,1 6,12A1.5,1.5 0 0,1 7.5,10.5M16.5,10.5A1.5,1.5 0 0,1 18,12A1.5,1.5 0 0,1 16.5,13.5A1.5,1.5 0 0,1 15,12A1.5,1.5 0 0,1 16.5,10.5M19.77,18.5L19.97,18.12C19.16,18.55 18.28,18.85 17.36,19L15.5,15.5L17.86,15L19.77,18.5M14.5,19.7C14,19.9 13.5,20 13,20H11C10.5,20 10,19.9 9.5,19.7L11,16H13L14.5,19.7M12,14A2,2 0 0,1 10,12A2,2 0 0,1 12,10A2,2 0 0,1 14,12A2,2 0 0,1 12,14Z"/>
</svg>
